%TF.GenerationSoftware,KiCad,Pcbnew,8.0.4*%
%TF.CreationDate,2025-01-13T22:40:44-07:00*%
%TF.ProjectId,Battery-Board,42617474-6572-4792-9d42-6f6172642e6b,rev?*%
%TF.SameCoordinates,Original*%
%TF.FileFunction,Soldermask,Bot*%
%TF.FilePolarity,Negative*%
%FSLAX46Y46*%
G04 Gerber Fmt 4.6, Leading zero omitted, Abs format (unit mm)*
G04 Created by KiCad (PCBNEW 8.0.4) date 2025-01-13 22:40:44*
%MOMM*%
%LPD*%
G01*
G04 APERTURE LIST*
G04 Aperture macros list*
%AMRoundRect*
0 Rectangle with rounded corners*
0 $1 Rounding radius*
0 $2 $3 $4 $5 $6 $7 $8 $9 X,Y pos of 4 corners*
0 Add a 4 corners polygon primitive as box body*
4,1,4,$2,$3,$4,$5,$6,$7,$8,$9,$2,$3,0*
0 Add four circle primitives for the rounded corners*
1,1,$1+$1,$2,$3*
1,1,$1+$1,$4,$5*
1,1,$1+$1,$6,$7*
1,1,$1+$1,$8,$9*
0 Add four rect primitives between the rounded corners*
20,1,$1+$1,$2,$3,$4,$5,0*
20,1,$1+$1,$4,$5,$6,$7,0*
20,1,$1+$1,$6,$7,$8,$9,0*
20,1,$1+$1,$8,$9,$2,$3,0*%
%AMFreePoly0*
4,1,6,0.830000,0.000000,0.470000,-0.460000,-0.280000,-0.460000,-0.280000,0.470000,0.470000,0.470000,0.830000,0.000000,0.830000,0.000000,$1*%
%AMFreePoly1*
4,1,6,0.620000,-0.470000,-0.520000,-0.470000,-0.150000,0.000000,-0.520000,0.470000,0.620000,0.470000,0.620000,-0.470000,0.620000,-0.470000,$1*%
G04 Aperture macros list end*
%ADD10R,1.700000X1.700000*%
%ADD11C,0.650000*%
%ADD12O,1.000000X2.100000*%
%ADD13O,1.000000X1.800000*%
%ADD14C,3.500000*%
%ADD15O,1.700000X1.700000*%
%ADD16C,2.000000*%
%ADD17O,1.500000X2.000000*%
%ADD18C,6.000000*%
%ADD19C,5.000000*%
%ADD20C,0.900000*%
%ADD21RoundRect,0.102000X-1.275000X1.275000X-1.275000X-1.275000X1.275000X-1.275000X1.275000X1.275000X0*%
%ADD22C,2.754000*%
%ADD23RoundRect,0.250000X1.500000X0.550000X-1.500000X0.550000X-1.500000X-0.550000X1.500000X-0.550000X0*%
%ADD24RoundRect,0.250000X-1.100000X0.325000X-1.100000X-0.325000X1.100000X-0.325000X1.100000X0.325000X0*%
%ADD25RoundRect,0.225000X-0.250000X0.225000X-0.250000X-0.225000X0.250000X-0.225000X0.250000X0.225000X0*%
%ADD26RoundRect,0.102000X1.000000X-2.050000X1.000000X2.050000X-1.000000X2.050000X-1.000000X-2.050000X0*%
%ADD27R,2.475000X3.000000*%
%ADD28RoundRect,0.200000X0.200000X0.275000X-0.200000X0.275000X-0.200000X-0.275000X0.200000X-0.275000X0*%
%ADD29RoundRect,0.375000X-0.375000X0.625000X-0.375000X-0.625000X0.375000X-0.625000X0.375000X0.625000X0*%
%ADD30RoundRect,0.500000X-1.400000X0.500000X-1.400000X-0.500000X1.400000X-0.500000X1.400000X0.500000X0*%
%ADD31R,1.910000X0.610000*%
%ADD32R,1.205000X1.550000*%
%ADD33FreePoly0,270.000000*%
%ADD34FreePoly1,270.000000*%
%ADD35RoundRect,0.250000X-0.475000X0.250000X-0.475000X-0.250000X0.475000X-0.250000X0.475000X0.250000X0*%
%ADD36RoundRect,0.200000X0.275000X-0.200000X0.275000X0.200000X-0.275000X0.200000X-0.275000X-0.200000X0*%
%ADD37RoundRect,0.218750X0.256250X-0.218750X0.256250X0.218750X-0.256250X0.218750X-0.256250X-0.218750X0*%
%ADD38RoundRect,0.250000X0.250000X0.475000X-0.250000X0.475000X-0.250000X-0.475000X0.250000X-0.475000X0*%
%ADD39RoundRect,0.150000X0.825000X0.150000X-0.825000X0.150000X-0.825000X-0.150000X0.825000X-0.150000X0*%
%ADD40RoundRect,0.250000X0.475000X-0.250000X0.475000X0.250000X-0.475000X0.250000X-0.475000X-0.250000X0*%
%ADD41RoundRect,0.200000X-0.275000X0.200000X-0.275000X-0.200000X0.275000X-0.200000X0.275000X0.200000X0*%
%ADD42RoundRect,0.225000X-0.225000X-0.250000X0.225000X-0.250000X0.225000X0.250000X-0.225000X0.250000X0*%
%ADD43RoundRect,0.200000X-0.200000X-0.275000X0.200000X-0.275000X0.200000X0.275000X-0.200000X0.275000X0*%
G04 APERTURE END LIST*
D10*
%TO.C,TP1*%
X166600000Y-75600000D03*
%TD*%
D11*
%TO.C,J2*%
X112710000Y-143295000D03*
X118490000Y-143295000D03*
D12*
X111280000Y-142795000D03*
D13*
X111280000Y-146975000D03*
D12*
X119920000Y-142795000D03*
D13*
X119920000Y-146975000D03*
%TD*%
D14*
%TO.C,H1*%
X187700000Y-144575000D03*
%TD*%
%TO.C,H2*%
X97700000Y-144575000D03*
%TD*%
%TO.C,H4*%
X97700000Y-54575000D03*
%TD*%
%TO.C,H3*%
X187700000Y-54600000D03*
%TD*%
D10*
%TO.C,J4*%
X162800000Y-75600000D03*
%TD*%
%TO.C,J3*%
X97270000Y-85020000D03*
D15*
X94730000Y-85020000D03*
X97270000Y-82480000D03*
X94730000Y-82480000D03*
X97270000Y-79940000D03*
X94730000Y-79940000D03*
X97270000Y-77400000D03*
X94730000Y-77400000D03*
X97270000Y-74860000D03*
X94730000Y-74860000D03*
%TD*%
D10*
%TO.C,TP3*%
X104800000Y-117600000D03*
%TD*%
D16*
%TO.C,SW1*%
X94350000Y-113850000D03*
X94350000Y-107350000D03*
X98850000Y-113850000D03*
X98850000Y-107350000D03*
%TD*%
D17*
%TO.C,J6*%
X144097000Y-136949000D03*
X141327000Y-137004000D03*
X145482000Y-139844000D03*
X142712000Y-139844000D03*
X139942000Y-139844000D03*
D18*
X149560000Y-137044000D03*
X135840000Y-137044000D03*
D19*
X159377000Y-137644000D03*
X126077000Y-137644000D03*
%TD*%
D10*
%TO.C,J9*%
X123400000Y-75700000D03*
%TD*%
%TO.C,J8*%
X159000000Y-75600000D03*
%TD*%
%TO.C,J5*%
X127200000Y-75700000D03*
%TD*%
D20*
%TO.C,SW2*%
X94545000Y-134700000D03*
X94545000Y-137700000D03*
%TD*%
D10*
%TO.C,TP2*%
X131000000Y-75700000D03*
%TD*%
%TO.C,J1*%
X95190000Y-102220000D03*
D15*
X95190000Y-99680000D03*
X95190000Y-97140000D03*
X95190000Y-94600000D03*
%TD*%
D21*
%TO.C,J7*%
X111062500Y-62350000D03*
D22*
X101562500Y-68700000D03*
%TD*%
D23*
%TO.C,C89*%
X133300000Y-131000000D03*
X127700000Y-131000000D03*
%TD*%
D24*
%TO.C,C30*%
X166035712Y-118470000D03*
X166035712Y-121420000D03*
%TD*%
D25*
%TO.C,C94*%
X186600000Y-107100000D03*
X186600000Y-108650000D03*
%TD*%
D26*
%TO.C,C77*%
X140900000Y-121950000D03*
X140900000Y-113250000D03*
%TD*%
D27*
%TO.C,JP2*%
X150287500Y-106200000D03*
X144912500Y-106200000D03*
%TD*%
D26*
%TO.C,C81*%
X151800000Y-121950000D03*
X151800000Y-113250000D03*
%TD*%
D28*
%TO.C,R50*%
X190025000Y-98600000D03*
X188375000Y-98600000D03*
%TD*%
D24*
%TO.C,C62*%
X127114284Y-118570000D03*
X127114284Y-121520000D03*
%TD*%
D29*
%TO.C,U4*%
X128300000Y-141850000D03*
X130600000Y-141850000D03*
D30*
X130600000Y-148150000D03*
D29*
X132900000Y-141850000D03*
%TD*%
D31*
%TO.C,U18*%
X186100000Y-101590000D03*
X186100000Y-102860000D03*
X186100000Y-104130000D03*
X186100000Y-105400000D03*
X180540000Y-105400000D03*
X180540000Y-104130000D03*
X180540000Y-102860000D03*
X180540000Y-101590000D03*
D32*
X183922500Y-104270000D03*
X183922500Y-102720000D03*
X182717500Y-104270000D03*
X182717500Y-102720000D03*
%TD*%
D33*
%TO.C,JP3*%
X182020000Y-108520000D03*
D34*
X182020000Y-109840000D03*
%TD*%
D24*
%TO.C,C67*%
X133757140Y-118570000D03*
X133757140Y-121520000D03*
%TD*%
D35*
%TO.C,C87*%
X135200000Y-141850000D03*
X135200000Y-143750000D03*
%TD*%
D36*
%TO.C,R6*%
X115000000Y-146025000D03*
X115000000Y-144375000D03*
%TD*%
%TO.C,R5*%
X116600000Y-146025000D03*
X116600000Y-144375000D03*
%TD*%
D24*
%TO.C,C32*%
X169357140Y-118470000D03*
X169357140Y-121420000D03*
%TD*%
D26*
%TO.C,C46*%
X187400000Y-121850000D03*
X187400000Y-113150000D03*
%TD*%
%TO.C,C42*%
X176500000Y-121850000D03*
X176500000Y-113150000D03*
%TD*%
D25*
%TO.C,C14*%
X140100000Y-146825000D03*
X140100000Y-148375000D03*
%TD*%
D36*
%TO.C,R49*%
X188300000Y-107425000D03*
X188300000Y-105775000D03*
%TD*%
D37*
%TO.C,D18*%
X191500000Y-107387500D03*
X191500000Y-105812500D03*
%TD*%
D33*
%TO.C,JP5*%
X184170000Y-108520000D03*
D34*
X184170000Y-109840000D03*
%TD*%
D38*
%TO.C,C52*%
X177850000Y-105300000D03*
X175950000Y-105300000D03*
%TD*%
D24*
%TO.C,C23*%
X159392852Y-118470000D03*
X159392852Y-121420000D03*
%TD*%
%TO.C,C58*%
X123792852Y-118570000D03*
X123792852Y-121520000D03*
%TD*%
D28*
%TO.C,R53*%
X177925000Y-102870000D03*
X176275000Y-102870000D03*
%TD*%
D39*
%TO.C,U6*%
X147575000Y-144495000D03*
X147575000Y-145765000D03*
X147575000Y-147035000D03*
X147575000Y-148305000D03*
X142625000Y-148305000D03*
X142625000Y-147035000D03*
X142625000Y-145765000D03*
X142625000Y-144495000D03*
%TD*%
D28*
%TO.C,R4*%
X141425000Y-142700000D03*
X139775000Y-142700000D03*
%TD*%
D40*
%TO.C,C88*%
X135200000Y-148150000D03*
X135200000Y-146250000D03*
%TD*%
D24*
%TO.C,C65*%
X130435712Y-118570000D03*
X130435712Y-121520000D03*
%TD*%
D41*
%TO.C,R48*%
X189900000Y-105775000D03*
X189900000Y-107425000D03*
%TD*%
D42*
%TO.C,C95*%
X188425000Y-102600000D03*
X189975000Y-102600000D03*
%TD*%
D24*
%TO.C,C27*%
X162714284Y-118470000D03*
X162714284Y-121420000D03*
%TD*%
D43*
%TO.C,R51*%
X188375000Y-100100000D03*
X190025000Y-100100000D03*
%TD*%
D25*
%TO.C,C11*%
X149800000Y-145625000D03*
X149800000Y-147175000D03*
%TD*%
M02*
