M48
; DRILL file {KiCad 8.0.4} date 2025-01-13T22:40:41-0700
; FORMAT={-:-/ absolute / metric / decimal}
; #@! TF.CreationDate,2025-01-13T22:40:41-07:00
; #@! TF.GenerationSoftware,Kicad,Pcbnew,8.0.4
; #@! TF.FileFunction,MixedPlating,1,4
FMAT,2
METRIC
; #@! TA.AperFunction,Plated,PTH,ComponentDrill
T1C0.200
; #@! TA.AperFunction,Plated,PTH,ViaDrill
T2C0.300
; #@! TA.AperFunction,Plated,PTH,ViaDrill
T3C0.500
; #@! TA.AperFunction,Plated,PTH,ComponentDrill
T4C0.600
; #@! TA.AperFunction,Plated,PTH,ComponentDrill
T5C1.000
; #@! TA.AperFunction,Plated,PTH,ComponentDrill
T6C1.100
; #@! TA.AperFunction,Plated,PTH,ComponentDrill
T7C1.700
; #@! TA.AperFunction,Plated,PTH,ComponentDrill
T8C3.500
; #@! TA.AperFunction,Plated,PTH,ComponentDrill
T9C4.000
; #@! TA.AperFunction,NonPlated,NPTH,ComponentDrill
T10C0.650
; #@! TA.AperFunction,NonPlated,NPTH,ComponentDrill
T11C0.900
; #@! TA.AperFunction,NonPlated,NPTH,ComponentDrill
T12C3.500
%
G90
G05
T1
X127.122Y-85.57
X128.397Y-84.795
X128.397Y-86.345
X129.672Y-85.57
X162.722Y-85.47
X163.997Y-84.695
X163.997Y-86.245
X165.272Y-85.47
T2
X94.7Y-128.9
X95.7Y-51.18
X95.7Y-58.8
X95.7Y-61.34
X95.7Y-63.88
X95.7Y-66.42
X95.7Y-68.96
X95.7Y-71.5
X95.7Y-147.7
X96.39Y-129.0
X96.7Y-131.7
X97.3Y-132.6
X97.398Y-129.805
X97.4Y-139.3
X97.9Y-133.61
X98.24Y-51.18
X98.24Y-58.8
X98.24Y-61.34
X98.24Y-63.88
X98.24Y-66.42
X98.24Y-68.96
X98.24Y-71.5
X98.24Y-96.9
X98.24Y-101.98
X98.24Y-117.22
X98.24Y-119.76
X98.24Y-122.3
X98.24Y-147.7
X98.54Y-125.175
X98.7Y-137.9
X98.8Y-133.4
X99.1Y-127.8
X99.4Y-125.75
X100.1Y-90.4
X100.78Y-51.18
X100.78Y-53.72
X100.78Y-56.26
X100.78Y-58.8
X100.78Y-61.34
X100.78Y-63.88
X100.78Y-66.42
X100.78Y-71.5
X100.78Y-74.04
X100.78Y-79.12
X100.78Y-107.06
X100.78Y-142.62
X100.78Y-145.16
X100.78Y-147.7
X101.4Y-128.5
X101.4Y-133.7
X102.3Y-128.2
X102.8Y-130.5
X102.8Y-132.9
X103.2Y-136.9
X103.32Y-51.18
X103.32Y-53.72
X103.32Y-56.26
X103.32Y-58.8
X103.32Y-61.34
X103.32Y-63.88
X103.32Y-66.42
X103.32Y-71.5
X103.32Y-74.04
X103.32Y-79.12
X103.32Y-81.66
X103.32Y-84.2
X103.32Y-86.74
X103.32Y-91.82
X103.32Y-142.62
X103.32Y-145.16
X103.32Y-147.7
X103.773Y-124.703
X103.78Y-109.05
X103.9Y-131.6
X104.3Y-137.3
X104.445Y-125.375
X104.5Y-110.87
X104.6Y-126.9
X104.995Y-127.798
X105.1Y-114.5
X105.1Y-130.5
X105.1Y-132.9
X105.487Y-137.393
X105.8Y-128.2
X105.86Y-51.18
X105.86Y-56.26
X105.86Y-58.8
X105.86Y-61.34
X105.86Y-63.88
X105.86Y-66.42
X105.86Y-68.96
X105.86Y-71.5
X105.86Y-74.04
X105.86Y-79.12
X105.86Y-81.66
X105.86Y-84.2
X105.86Y-86.74
X105.86Y-91.82
X105.86Y-94.36
X105.86Y-96.9
X105.86Y-101.98
X105.86Y-104.52
X105.86Y-107.06
X105.86Y-119.76
X105.86Y-142.62
X105.86Y-145.16
X105.86Y-147.7
X106.3Y-122.2
X106.342Y-136.9
X107.0Y-53.0
X107.35Y-134.45
X108.0Y-55.5
X108.1Y-135.5
X108.3Y-126.55
X108.4Y-51.18
X108.4Y-142.62
X108.4Y-145.16
X108.4Y-147.7
X108.6Y-132.9
X108.712Y-133.793
X109.5Y-131.0
X109.6Y-113.2
X110.7Y-127.8
X110.7Y-128.9
X110.7Y-131.9
X110.94Y-51.18
X110.94Y-53.72
X110.94Y-58.8
X110.94Y-68.96
X110.94Y-71.5
X110.94Y-74.04
X110.94Y-81.66
X110.94Y-84.2
X110.94Y-86.74
X110.94Y-91.82
X110.94Y-94.36
X110.94Y-96.9
X110.94Y-101.98
X110.94Y-104.52
X110.94Y-107.06
X110.94Y-109.6
X110.94Y-117.22
X110.94Y-119.76
X110.94Y-145.16
X111.7Y-130.8
X113.48Y-51.18
X113.48Y-53.72
X113.48Y-58.8
X113.48Y-68.96
X113.48Y-71.5
X113.48Y-74.04
X113.48Y-76.58
X114.4Y-144.3
X114.9Y-146.6
X115.0Y-124.225
X115.0Y-125.175
X116.02Y-51.18
X116.02Y-53.72
X116.02Y-58.8
X116.02Y-71.5
X116.02Y-74.04
X116.02Y-76.58
X116.02Y-79.12
X116.02Y-81.66
X116.02Y-84.2
X116.02Y-86.74
X116.02Y-91.82
X116.02Y-94.36
X116.02Y-96.9
X116.6Y-146.6
X117.1Y-144.3
X118.1Y-107.0
X118.56Y-51.18
X118.56Y-53.72
X118.56Y-58.8
X118.56Y-71.5
X118.56Y-74.04
X118.56Y-76.58
X118.56Y-94.36
X118.56Y-96.9
X118.56Y-99.44
X118.56Y-101.98
X118.56Y-104.52
X118.56Y-117.22
X118.56Y-119.76
X118.56Y-147.7
X118.6Y-87.4
X119.5Y-85.8
X119.8Y-90.6
X121.0Y-81.7
X121.1Y-51.18
X121.1Y-53.72
X121.1Y-58.8
X121.1Y-68.96
X121.1Y-71.5
X121.1Y-74.04
X121.1Y-76.58
X121.1Y-145.16
X121.9Y-83.3
X122.1Y-84.9
X122.2Y-87.9
X122.5Y-79.2
X123.4Y-82.5
X123.4Y-89.8
X123.64Y-51.18
X123.64Y-53.72
X123.64Y-58.8
X123.64Y-68.96
X123.64Y-71.5
X123.64Y-124.84
X123.64Y-127.38
X123.64Y-129.92
X123.64Y-147.7
X124.5Y-82.0
X125.65Y-85.6
X126.0Y-82.25
X126.18Y-51.18
X126.18Y-58.8
X126.18Y-68.96
X126.18Y-71.5
X126.18Y-124.84
X126.18Y-127.38
X126.18Y-147.7
X126.42Y-54.47
X127.8Y-82.7
X128.72Y-51.18
X128.72Y-68.96
X128.72Y-71.5
X128.72Y-124.84
X128.72Y-127.38
X128.72Y-135.0
X129.75Y-111.35
X129.8Y-105.0
X129.8Y-106.6
X129.8Y-108.2
X129.8Y-109.8
X130.4Y-79.3
X131.26Y-51.18
X131.26Y-68.96
X131.26Y-71.5
X131.26Y-124.84
X131.26Y-127.38
X131.5Y-82.65
X131.5Y-83.7
X132.0Y-79.3
X132.05Y-87.6
X132.75Y-85.55
X133.3Y-131.1
X133.4Y-83.75
X133.6Y-55.5
X133.6Y-82.55
X133.7Y-107.5
X133.8Y-51.18
X133.8Y-87.6
X133.8Y-124.84
X133.8Y-127.38
X134.095Y-60.245
X134.7Y-83.7
X135.295Y-60.245
X136.34Y-51.18
X136.34Y-132.46
X136.4Y-88.5
X136.55Y-90.6
X136.995Y-55.745
X137.0Y-75.7
X137.895Y-55.02
X138.595Y-60.745
X138.88Y-109.6
X138.9Y-128.1
X139.275Y-112.14
X139.5Y-146.8
X141.42Y-109.6
X141.42Y-127.38
X141.42Y-129.92
X143.96Y-109.6
X144.0Y-113.2
X146.49Y-117.915
X146.5Y-84.2
X146.5Y-86.74
X146.5Y-91.82
X146.5Y-94.36
X146.5Y-96.9
X146.5Y-103.4
X146.5Y-148.3
X146.6Y-114.5
X147.6Y-143.6
X147.76Y-117.915
X148.5Y-101.0
X149.04Y-51.18
X149.04Y-53.72
X149.04Y-61.34
X149.04Y-71.5
X149.04Y-74.04
X149.04Y-76.58
X149.04Y-79.12
X149.04Y-81.66
X149.04Y-84.2
X149.04Y-86.74
X149.04Y-91.82
X149.04Y-94.36
X149.04Y-96.9
X149.04Y-109.6
X149.04Y-132.46
X149.5Y-122.9
X149.85Y-113.415
X149.88Y-118.32
X150.028Y-121.728
X150.75Y-112.69
X151.5Y-129.6
X151.58Y-51.18
X151.58Y-53.72
X151.58Y-61.34
X151.58Y-71.5
X151.58Y-74.04
X151.58Y-76.58
X151.58Y-79.12
X151.58Y-81.66
X151.58Y-84.2
X151.58Y-86.74
X151.58Y-91.82
X151.58Y-94.36
X151.58Y-96.9
X151.58Y-99.44
X151.58Y-101.98
X151.58Y-127.38
X151.58Y-142.62
X151.95Y-114.05
X154.1Y-85.7
X154.1Y-87.3
X154.12Y-51.18
X154.12Y-53.72
X154.12Y-58.8
X154.12Y-61.34
X154.12Y-71.5
X154.12Y-74.04
X154.12Y-76.58
X154.12Y-81.66
X154.12Y-94.36
X154.12Y-96.9
X154.12Y-99.44
X154.12Y-101.98
X154.12Y-109.6
X154.12Y-127.38
X154.12Y-140.08
X154.12Y-142.62
X154.12Y-145.16
X155.4Y-84.2
X155.4Y-90.5
X156.66Y-51.18
X156.66Y-53.72
X156.66Y-58.8
X156.66Y-61.34
X156.66Y-71.5
X156.66Y-74.04
X156.66Y-76.58
X156.66Y-127.38
X156.66Y-142.62
X156.66Y-145.16
X157.6Y-88.55
X157.7Y-84.8
X158.1Y-79.1
X158.5Y-89.645
X158.5Y-90.9
X158.6Y-83.17
X159.2Y-51.18
X159.2Y-53.72
X159.2Y-58.8
X159.2Y-61.34
X159.2Y-71.5
X159.2Y-142.62
X159.2Y-145.16
X159.6Y-85.5
X159.65Y-87.45
X160.1Y-81.9
X161.7Y-82.1
X161.74Y-51.18
X161.74Y-53.72
X161.74Y-58.8
X161.74Y-61.34
X161.74Y-71.5
X161.74Y-124.84
X161.74Y-132.46
X161.74Y-142.62
X163.4Y-82.6
X164.0Y-85.5
X164.28Y-51.18
X164.28Y-53.72
X164.28Y-58.8
X164.28Y-61.34
X164.28Y-71.5
X164.28Y-124.84
X164.28Y-127.38
X164.28Y-135.0
X164.28Y-137.54
X164.28Y-140.08
X164.28Y-147.7
X166.0Y-79.2
X166.82Y-51.18
X166.82Y-53.72
X166.82Y-58.8
X166.82Y-61.34
X166.82Y-71.5
X166.82Y-124.84
X166.82Y-127.38
X166.82Y-137.54
X166.82Y-145.16
X166.82Y-147.7
X167.6Y-79.2
X167.6Y-87.6
X168.3Y-85.45
X169.3Y-107.4
X169.36Y-51.18
X169.36Y-53.72
X169.36Y-58.8
X169.36Y-61.34
X169.36Y-124.84
X169.36Y-127.38
X169.36Y-132.46
X169.36Y-142.62
X169.36Y-145.16
X169.36Y-147.7
X170.3Y-83.6
X171.9Y-51.18
X171.9Y-53.72
X171.9Y-58.8
X171.9Y-61.34
X171.9Y-142.62
X171.9Y-147.7
X172.0Y-88.4
X172.4Y-90.25
X172.6Y-75.6
X173.5Y-84.05
X174.44Y-51.18
X174.44Y-53.72
X174.44Y-58.8
X174.44Y-61.34
X174.44Y-96.9
X174.44Y-99.44
X174.44Y-101.98
X174.44Y-104.52
X174.44Y-142.62
X174.44Y-147.7
X176.45Y-105.35
X176.65Y-102.85
X176.98Y-51.18
X176.98Y-53.72
X176.98Y-58.8
X176.98Y-61.34
X176.98Y-96.9
X176.98Y-99.44
X176.98Y-107.06
X176.98Y-140.08
X176.98Y-142.62
X176.98Y-147.7
X178.5Y-124.791
X179.0Y-133.915
X179.5Y-129.415
X179.5Y-130.615
X179.52Y-51.18
X179.52Y-53.72
X179.52Y-58.8
X179.52Y-61.34
X179.52Y-114.68
X179.52Y-117.22
X179.52Y-147.7
X181.2Y-125.1
X182.06Y-51.18
X182.06Y-53.72
X182.06Y-61.34
X182.06Y-84.2
X182.06Y-86.74
X182.06Y-96.9
X182.06Y-107.06
X182.06Y-112.14
X182.06Y-114.68
X182.06Y-117.22
X182.06Y-142.62
X182.06Y-145.16
X182.06Y-147.7
X182.6Y-102.5
X182.6Y-104.3
X183.9Y-102.5
X183.9Y-104.3
X184.0Y-132.315
X184.2Y-126.3
X184.3Y-128.5
X184.4Y-118.8
X184.6Y-51.18
X184.6Y-53.72
X184.6Y-56.26
X184.6Y-94.36
X184.6Y-96.9
X184.6Y-117.22
X184.6Y-142.62
X184.6Y-145.16
X184.6Y-147.7
X184.725Y-133.215
X187.14Y-51.18
X187.14Y-58.8
X187.14Y-61.34
X187.14Y-63.88
X187.14Y-66.42
X187.14Y-68.96
X187.14Y-71.5
X187.14Y-74.04
X187.14Y-76.58
X187.14Y-79.12
X187.14Y-81.66
X187.14Y-84.2
X187.14Y-86.74
X187.14Y-89.28
X187.14Y-91.82
X187.14Y-94.36
X187.14Y-96.9
X187.14Y-140.08
X187.14Y-147.7
X187.3Y-108.7
X187.8Y-107.3
X188.1Y-104.13
X189.4Y-100.1
X189.5Y-102.1
X189.68Y-51.18
X189.68Y-58.8
X189.68Y-61.34
X189.68Y-63.88
X189.68Y-66.42
X189.68Y-68.96
X189.68Y-71.5
X189.68Y-74.04
X189.68Y-76.58
X189.68Y-79.12
X189.68Y-81.66
X189.68Y-84.2
X189.68Y-86.74
X189.68Y-89.28
X189.68Y-91.82
X189.68Y-94.36
X189.68Y-96.9
X189.68Y-109.6
X189.68Y-112.14
X189.68Y-114.68
X189.68Y-129.92
X189.68Y-132.46
X189.68Y-135.0
X189.68Y-137.54
X189.68Y-140.08
X189.68Y-147.7
X191.5Y-108.0
T3
X99.8Y-137.3
X101.375Y-140.1
X105.4Y-123.775
X106.9Y-140.9
X108.3Y-137.5
X109.8Y-127.2
X110.5Y-122.1
X112.35Y-140.8
X114.2Y-132.0
X114.25Y-127.5
X115.17Y-122.23
X115.38Y-99.62
X115.6Y-140.1
X116.1Y-123.75
X118.14Y-137.195
X118.85Y-140.8
X119.72Y-137.097
X121.46Y-142.93
X121.6Y-97.0
X121.6Y-103.2
X122.2Y-117.8
X122.2Y-119.1
X123.3Y-117.8
X123.3Y-119.1
X124.4Y-117.8
X124.4Y-119.1
X125.3Y-91.2
X125.5Y-117.8
X125.5Y-119.1
X126.6Y-117.8
X126.6Y-119.1
X126.9Y-91.1
X127.7Y-117.8
X127.7Y-119.1
X128.6Y-58.1
X128.8Y-61.8
X128.8Y-117.8
X128.8Y-119.1
X129.7Y-97.0
X129.7Y-103.2
X129.9Y-117.8
X129.9Y-119.1
X130.1Y-91.2
X131.0Y-61.6
X131.0Y-117.8
X131.0Y-119.1
X132.2Y-105.4
X132.2Y-106.5
X132.2Y-107.7
X132.2Y-108.8
X132.2Y-109.9
X132.2Y-111.0
X132.2Y-112.1
X132.2Y-117.8
X132.2Y-119.1
X133.3Y-105.4
X133.3Y-106.5
X133.3Y-108.8
X133.3Y-109.9
X133.3Y-111.0
X133.3Y-112.1
X133.3Y-117.8
X133.3Y-119.1
X133.4Y-54.2
X134.3Y-141.85
X134.4Y-105.4
X134.4Y-106.5
X134.4Y-108.8
X134.4Y-109.9
X134.4Y-111.0
X134.4Y-112.1
X134.4Y-117.8
X134.4Y-119.1
X135.5Y-105.4
X135.5Y-106.5
X135.5Y-108.8
X135.5Y-109.9
X135.5Y-111.0
X135.5Y-112.1
X136.0Y-146.3
X138.3Y-111.9
X141.7Y-55.8
X144.1Y-119.7
X145.8Y-112.0
X146.2Y-55.1
X148.9Y-57.4
X151.0Y-147.2
X151.9Y-110.5
X154.0Y-114.0
X157.2Y-96.9
X157.2Y-103.1
X157.8Y-117.7
X157.8Y-119.0
X158.9Y-117.7
X158.9Y-119.0
X160.0Y-117.7
X160.0Y-119.0
X160.9Y-91.1
X161.1Y-117.7
X161.1Y-119.0
X162.2Y-117.7
X162.2Y-119.0
X162.5Y-91.0
X163.3Y-117.7
X163.3Y-119.0
X164.4Y-117.7
X164.4Y-119.0
X165.3Y-96.9
X165.3Y-103.1
X165.5Y-117.7
X165.5Y-119.0
X165.7Y-91.1
X166.6Y-117.7
X166.6Y-119.0
X167.3Y-98.85
X167.3Y-100.05
X167.35Y-101.25
X167.35Y-102.5
X167.8Y-117.7
X167.8Y-119.0
X168.6Y-98.85
X168.6Y-100.05
X168.65Y-101.25
X168.65Y-102.5
X168.9Y-117.7
X168.9Y-119.0
X169.9Y-98.85
X169.9Y-100.05
X169.95Y-101.25
X169.95Y-102.5
X170.0Y-117.7
X170.0Y-119.0
X170.8Y-138.4
X171.15Y-98.85
X171.15Y-100.05
X171.2Y-101.25
X171.2Y-102.5
X173.2Y-140.5
X174.6Y-136.1
X178.1Y-127.05
X178.5Y-131.4
X179.0Y-105.4
X180.15Y-110.0
X182.0Y-139.9
X182.5Y-57.9
X185.45Y-127.8
X186.9Y-132.35
X186.9Y-137.3
X187.5Y-110.4
T5
X94.73Y-74.86
X94.73Y-77.4
X94.73Y-79.94
X94.73Y-82.48
X94.73Y-85.02
X95.19Y-94.6
X95.19Y-97.14
X95.19Y-99.68
X95.19Y-102.22
X97.27Y-74.86
X97.27Y-77.4
X97.27Y-79.94
X97.27Y-82.48
X97.27Y-85.02
X104.8Y-117.6
X123.4Y-75.7
X127.2Y-75.7
X131.0Y-75.7
X139.942Y-139.844
X141.327Y-137.004
X142.712Y-139.844
X144.097Y-136.949
X145.482Y-139.844
X159.0Y-75.6
X162.8Y-75.6
X166.6Y-75.6
T6
X94.35Y-107.35
X94.35Y-113.85
X98.85Y-107.35
X98.85Y-113.85
T7
X101.562Y-68.7
X111.062Y-62.35
T8
X126.077Y-137.644
X159.377Y-137.644
T9
X135.84Y-137.044
X149.56Y-137.044
T10
X112.71Y-143.295
X118.49Y-143.295
T11
X94.545Y-134.7
X94.545Y-137.7
T12
X97.7Y-54.575
X97.7Y-144.575
X187.7Y-54.6
X187.7Y-144.575
T4
G00X111.28Y-142.245
M15
G01X111.28Y-143.345
M16
G05
G00X111.28Y-146.575
M15
G01X111.28Y-147.375
M16
G05
G00X119.92Y-142.245
M15
G01X119.92Y-143.345
M16
G05
G00X119.92Y-146.575
M15
G01X119.92Y-147.375
M16
G05
M30
